<?xml version="1.0" standalone="no"?><!DOCTYPE svg PUBLIC "-//W3C//DTD SVG 1.1//EN" "http://www.w3.org/Graphics/SVG/1.1/DTD/svg11.dtd"><svg t="1572858253182" class="icon" viewBox="0 0 1024 1024" version="1.1" xmlns="http://www.w3.org/2000/svg" p-id="6235" xmlns:xlink="http://www.w3.org/1999/xlink" width="200" height="200"><defs><style type="text/css"></style></defs><path d="M512 1024c-56.096-89.344-97.184-137.728-123.296-145.184C201.216 825.248 64 652.672 64 448 64 200.576 264.576 0 512 0s448 200.576 448 448c0 203.168-135.232 374.72-320.608 429.632-26.88 7.968-69.376 56.768-127.392 146.368z m187.52-799.392c-39.04 2.432-70.464 9.824-94.336 22.24-23.872 12.384-41.504 27.36-52.864 44.928a98.976 98.976 0 0 0-16.576 56.256c0.288 19.968 5.088 38.72 14.4 56.256-5.824 8.48-10.752 16.352-14.848 23.616a346.56 346.56 0 0 0-13.12 26.304 342.976 342.976 0 0 0-21.824 89.856c-18.048-27.2-36.384-49.6-55.008-67.168a122.976 122.976 0 0 0 1.76-54.432 92.416 92.416 0 0 0-25.792-48.096c-13.664-13.92-32.576-24.672-56.768-32.224-24.16-7.584-54.56-9.536-91.264-5.92a226.944 226.944 0 0 0-68.096 17.696 289.312 289.312 0 0 0-56.32 31.776c-16.032 11.808-28.832 23.744-38.464 35.84-9.6 12.096-14.4 22.08-14.4 29.952 0 7.872 4.224 11.968 12.672 12.256 8.448 0.32 19.2-0.32 32.32-1.824a288 288 0 0 1 43.648-1.344c16 0.608 31.584 5.44 46.72 14.528 9.92 5.44 19.648 11.776 29.28 19.04 9.6 7.264 19.072 14.08 28.384 20.416 9.28 6.368 18.624 12.128 27.936 17.28 9.312 5.12 19.2 8.608 29.696 10.4 5.824 1.216 12.672 1.984 20.512 2.272 7.872 0.32 16.16-0.896 24.896-3.616s17.312-7.712 25.76-14.976c8.448-7.264 15.872-18.144 22.272-32.672 10.496 12.096 20.096 24.8 28.8 38.112 8.768 13.312 17.792 29.664 27.104 49.024 0 9.056 0.32 18.432 0.864 28.128 0.576 9.664 1.024 19.2 1.312 28.576a192 192 0 0 1-0.864 26.336 64.896 64.896 0 0 1-5.664 21.312c-2.912 4.832-4.096 9.088-3.52 12.704 0 3.04 1.6 5.92 4.8 8.64 3.2 2.72 9.472 4.064 18.784 4.064 8.16 0 13.696-1.344 16.608-4.064 2.88-2.72 4.352-5.6 4.352-8.64 0-3.616-1.44-8.16-4.352-13.6-2.336-4.864-4.096-12.864-5.248-24.064-1.152-11.2-1.92-23.424-2.176-36.736-0.32-13.312-0.16-26.784 0.416-40.416 0.608-13.6 1.472-24.96 2.624-34.016 1.184-10.88 2.784-22.528 4.8-34.944 2.048-12.416 4.512-24.352 7.424-35.84 2.912-11.52 6.272-22.24 10.048-32.224 3.808-9.984 8.32-18.624 13.536-25.856 8.16 11.488 16.736 19.648 25.76 24.48 9.056 4.864 17.76 7.712 26.24 8.64 8.416 0.896 16.416 0.448 24-1.376a208 208 0 0 0 19.2-5.44 102.72 102.72 0 0 0 29.28-15.872c9.024-6.976 17.76-14.528 26.176-22.72 8.448-8.16 16.896-16.64 25.344-25.376 8.448-8.8 17.312-16.8 26.624-24.064 13.984-11.52 28.8-18.88 44.544-22.24 15.712-3.328 30.144-5.6 43.232-6.816 13.12-1.184 24-2.56 32.768-4.064 8.736-1.504 13.088-5.92 13.088-13.152 0-7.264-5.664-16.192-17.024-26.784-11.36-10.56-26.208-20.576-44.544-29.952a322.016 322.016 0 0 0-62.88-23.584 214.08 214.08 0 0 0-72.064-6.816z m-260.288 249.6l-4.352 16.32a245.44 245.44 0 0 0-51.52-40.384 242.336 242.336 0 0 0-52.864-22.72 201.92 201.92 0 0 0-52.832-8.16c-17.472-0.288-34.656 0.48-51.52 2.272a5.888 5.888 0 0 1-2.624-0.448c-0.576-0.32-0.32-0.448 0.864-0.448 38.4-10.272 75.68-11.2 111.776-2.72 36.128 8.48 70.464 27.2 103.072 56.256z m320.512-172.48c-15.136 0.64-30.848 2.592-47.136 5.92a207.84 207.84 0 0 0-50.24 17.696 235.584 235.584 0 0 0-50.656 34.496c-16.576 14.528-32.736 32.96-48.448 55.36l-8.736-15.424c26.176-34.496 56.48-60.672 90.816-78.528 34.368-17.824 72.768-24.64 115.296-20.416 1.728 0 2.304 0.16 1.728 0.448a5.888 5.888 0 0 1-2.624 0.48zM303.872 765.536c8.736 7.264 23.264 13.472 43.648 18.624 20.384 5.12 43.68 9.056 69.888 11.776 26.176 2.72 53.984 4.096 83.392 4.096 29.408 0 57.92-1.216 85.6-3.616a611.616 611.616 0 0 0 76.864-11.36c23.552-5.12 42.336-11.648 56.32-19.52 5.824-3.008 4.96-7.392-2.624-13.152-7.584-5.76-18.784-11.808-33.6-18.144a886.624 886.624 0 0 0-50.24-19.52 878.528 878.528 0 0 0-53.28-17.248c-7.552-1.824-13.376-1.344-17.472 1.376a88.64 88.64 0 0 0-12.224 9.984 125.312 125.312 0 0 1-14.4 11.776c-5.536 3.936-13.536 5.92-24 5.92-10.496 0-18.496-1.984-24.032-5.92a83.584 83.584 0 0 1-13.984-12.224 56.608 56.608 0 0 0-12.224-10.464c-4.384-2.72-10.336-2.88-17.92-0.448a1023.36 1023.36 0 0 0-102.176 35.392c-14.56 6.08-25.6 11.968-33.184 17.696-7.552 5.76-9.024 10.752-4.352 14.976z" fill="#067020" p-id="6236"></path></svg>